# xmcd
#
# Track frame offsets:
#	150
#	19480
#	46967
#	92407
# Disc length: 1874 seconds
# Revision: 1
# Processed by: cddbd v1.5.2PL0 Copyright (c) Steve Scherf et al.
#
# Submitted via: libkcddb 0.31
#
DISCID=28075004
DTITLE=Dave Matthews Band - 2007 Summer Tour Sampler
DYEAR=2007
DGENRE=Country
TTITLE0=Sweet Up And Down
TTITLE1=Tripping Billies
TTITLE2=Grace Is Gone - Black Water
TTITLE3=American Baby Intro
EXTD=
EXTT0=
EXTT1=
EXTT2=
EXTT3=
PLAYORDER=
